# xmcd CD database file
#
# Track frame offsets:
#	150
#	17356
#	34531
#	52392
#	65204
#	84159
#	101849
#	118380
#	136273
#	151813
#	172286
#	186494
#	198671
#	217892
#	234598
#	253518
#	267535
#	286942
#
# Disc length: 4047 seconds
#
# Revision: 0
# Processed by: cddbd v1.4PL0 Copyright (c) Steve Scherf et al.
# Submitted via: CDex 1.50Beta5
#
DISCID=120fcd12
DTITLE=Mato Grosso and Mathias - Os Sucessos...
DYEAR=2001
DGENRE=Country
TTITLE0=Mato Grosso and Mathias - 24 Horas de Amor
TTITLE1=Mato Grosso and Mathias - Foi Pensando em Você
TTITLE2=Mato Grosso and Mathias - Na Hora do Adeus
TTITLE3=Mato Grosso and Mathias - Falso Juramento
TTITLE4=Mato Grosso and Mathias - Sábado
TTITLE5=Mato Grosso and Mathias - Idas e Voltas
TTITLE6=Mato Grosso and Mathias - Lembranças
TTITLE7=Mato Grosso and Mathias - De Igual Para Igual
TTITLE8=Mato Grosso and Mathias - Memória
TTITLE9=Mato Grosso and Mathias - Frente a Frente
TTITLE10=Mato Grosso and Mathias - Objeto de Prazer
TTITLE11=Mato Grosso and Mathias - Pedaços da Minha Vida
TTITLE12=Mato Grosso and Mathias - Magia
TTITLE13=Mato Grosso and Mathias - Volte Amor
TTITLE14=Mato Grosso and Mathias - Tristeza Danada
TTITLE15=Mato Grosso and Mathias - Você Vai Gostar
TTITLE16=Mato Grosso and Mathias - Video Tape
TTITLE17=Mato Grosso and Mathias - Quando o Amor Se Transforma em Poesia
EXTD=YEAR: 2001
EXTT0=
EXTT1=
EXTT2=
EXTT3=
EXTT4=
EXTT5=
EXTT6=
EXTT7=
EXTT8=
EXTT9=
EXTT10=
EXTT11=
EXTT12=
EXTT13=
EXTT14=
EXTT15=
EXTT16=
EXTT17=
PLAYORDER=
